<?xml version="1.0" standalone="no"?><!DOCTYPE svg PUBLIC "-//W3C//DTD SVG 1.1//EN" "http://www.w3.org/Graphics/SVG/1.1/DTD/svg11.dtd"><svg t="1543048515194" class="icon" style="" viewBox="0 0 1024 1024" version="1.1" xmlns="http://www.w3.org/2000/svg" p-id="3373" xmlns:xlink="http://www.w3.org/1999/xlink" width="200" height="200"><defs><style type="text/css"></style></defs><path d="M512 64c-141.4 0-256 110.8-256 247.6 0 9.8 0.6 19.4 1.8 29 1.2 10.8 3.2 21.2 6 31.4 0.2 1 0.6 2.2 0.8 3.2 33.2 125.6 90.6 143 117.8 335.2 0 0.4 0.2 0.8 0.2 1 3 18.4 19.6 24.6 39.6 24.6L602 736c20 0 36.4-6.2 39.4-24.6 0-0.4 0.2-0.8 0.2-1 27.2-192.2 84.6-209.4 117.8-335.2 0.4-1 0.6-2 0.8-3.2 2.6-10.2 4.6-20.8 6-31.4 1.2-9.4 1.8-19.2 1.8-29C768 174.8 653.4 64 512 64z" p-id="3374"></path><path d="M635.6 793c0.2-0.4 0.6-0.8 0.8-1.2 2.2-3.4 3.4-7.2 3.4-11.4 0-7 3.2-12.4-13-12.4L397.2 768c-16.2 0-13 4.2-13 12.4 0 4.2 1.2 8 3.4 11.4 0.2 0.4 0.6 0.8 1 1.2 0 0.2 0.2 0.2 0.2 0.4 3.4 5.2 5.4 8.8 5.4 15.2 0 6.2-1.8 9.8-5.2 15-0.6 0.8-1 1.4-1.4 2-2 3.4-3.2 7.2-3.2 11.2 0 4.2 1.2 8 3.4 11.6 0.2 0.4 0.6 0.8 0.8 1.2 3.6 5.4 5.6 9 5.6 15.6 0 6.2-1.8 9.8-5.2 14.8-0.4 0.8-1 1.4-1.6 2.2-2 3.4-3.2 7.2-3.2 11.2 0 10.8 8.6 20.2 20.4 23.2 0.6 0.2 1.2 0.2 1.8 0.4 12 2.8 24.4 3.2 37 5 1.4 0.2 2.8 0.4 4.4 0.6 11.2 2 20.6 7.8 26.8 15.4l0 0c7.6 10.6 21.6 22 37.6 22 15.2 0 28.6-10.8 36.4-20.8l0 0c6-8.4 16-14.6 27.8-16.8 1.4-0.2 2.8-0.6 4.4-0.6 12.6-1.8 25-2.2 37-5 0.6-0.2 1.2-0.2 1.8-0.4 11.8-3.2 20.4-12.4 20.4-23.2 0-4-1.2-7.8-3.2-11.2-0.6-0.8-1-1.4-1.6-2.2-3.2-5.2-5.2-8.6-5.2-14.8 0-6.4 2-10.2 5.6-15.6 0.2-0.4 0.6-0.8 0.8-1.2 2.2-3.4 3.4-7.4 3.4-11.6 0-4-1.2-7.8-3.2-11.2-0.6-0.6-1-1.4-1.4-2-3.2-5.2-5.2-8.6-5.2-15 0-6.4 2-10 5.4-15.2C635.4 793.4 635.4 793.2 635.6 793z" p-id="3375"></path></svg>