<?xml version="1.0" standalone="no"?><!DOCTYPE svg PUBLIC "-//W3C//DTD SVG 1.1//EN" "http://www.w3.org/Graphics/SVG/1.1/DTD/svg11.dtd"><svg t="1543048550243" class="icon" style="" viewBox="0 0 1024 1024" version="1.1" xmlns="http://www.w3.org/2000/svg" p-id="3490" xmlns:xlink="http://www.w3.org/1999/xlink" width="200" height="200"><defs><style type="text/css"></style></defs><path d="M640 329.142857c0 9.728-8.557714 18.285714-18.285714 18.285714s-18.285714-8.557714-18.285715-18.285714c0-39.424-61.147429-54.857143-91.428571-54.857143-9.728 0-18.285714-8.557714-18.285714-18.285714s8.557714-18.285714 18.285714-18.285714c53.138286 0 128 28.013714 128 91.428571zM731.428571 329.142857c0-114.285714-116.004571-182.857143-219.428571-182.857143S292.571429 214.857143 292.571429 329.142857c0 36.571429 14.848 74.861714 38.838857 102.838857 10.861714 12.580571 23.442286 24.576 34.852571 37.705143 40.557714 48.566857 74.861714 105.728 80.566857 170.276572h130.304c5.705143-64.585143 40.009143-121.709714 80.566857-170.276572 11.446857-13.129143 23.990857-25.161143 34.852572-37.705143 23.990857-28.013714 38.838857-66.304 38.838857-102.838857z m73.142858 0c0 58.843429-19.419429 109.714286-58.843429 153.161143s-91.428571 104.557714-96 165.705143c16.566857 9.728 26.843429 28.013714 26.843429 46.848 0 13.714286-5.156571 26.843429-14.299429 36.571428 9.142857 9.728 14.299429 22.857143 14.299429 36.571429 0 18.870857-9.728 35.986286-25.709715 46.299429 4.571429 8.009143 7.424 17.700571 7.424 26.843428 0 37.156571-29.147429 54.857143-62.281143 54.857143C581.156571 929.133714 547.986286 950.857143 512 950.857143s-69.156571-21.723429-84.004571-54.857143C394.861714 896 365.714286 878.299429 365.714286 841.142857c0-9.142857 2.852571-18.870857 7.424-26.843428A54.857143 54.857143 0 0 1 347.428571 768c0-13.714286 5.156571-26.843429 14.299429-36.571429a53.430857 53.430857 0 0 1-14.299429-36.571428 54.857143 54.857143 0 0 1 26.843429-46.848c-4.571429-61.147429-56.576-122.294857-96-165.705143S219.428571 388.022857 219.428571 329.142857c0-155.428571 148.004571-256 292.571429-256s292.571429 100.571429 292.571429 256z" fill="" p-id="3491"></path></svg>